<svg width="62" height="85" fill="none" xmlns="http://www.w3.org/2000/svg"><g clip-path="url(#a)"><path d="m61.857 26.48-.191 39.801-.032 7.699c-.032 6.117-5.846 11.052-13.001 11.02l-35.744-.16C5.749 84.792-.031 79.81 0 73.676l.224-47.499c.016-4.951 3.849-9.136 9.087-10.525l.016-2.555v-1.31l43.554.208-.016 3.865c5.223 1.453 9.008 5.654 8.992 10.62Z" fill="url(#b)"/><path d="M56.124 1.773v.351l-.032 4.153-.032 4.073v.495c0 .766-.64 1.39-1.406 1.39h-.335l-2.108-.017-2.316-.016-2.108-.016-2.316-.016-2.14-.032-2.316-.016-2.109-.016-2.331-.016-2.125-.016-2.316-.016-2.108-.031-2.316-.016-2.108-.016-2.332-.016-2.124-.016-2.3-.016-2.108-.016-2.316-.016-2.124-.016-2.316-.016-2.124-.016h-.335c-.767 0-1.39-.64-1.39-1.406v-.367l.064-8.21V1.39C6.197.623 6.836 0 7.618 0h.336l4.44.032 4.44.032 2.124.016 2.316.016 2.108.016 4.424.048 2.316.016 2.108.016 2.316.016 2.108.016L38.97.24l2.109.016 2.315.016 2.109.015L47.85.32l2.109.016 2.316.016 2.124.016h.335c.783.016 1.39.64 1.39 1.406Z" fill="url(#c)"/><path d="M61.81 34.884.177 34.593.047 61.92l61.634.291.13-27.327Z" fill="#F7F9FC"/><path d="M61.822 34.884.188 34.593l-.024 4.919 61.634.291.023-4.919Z" fill="#FBFCF7"/><path d="m24.213 45.58-3.977-.016.016-3.992-5.478-.017-.016 3.977-3.977-.015-.032 5.462 3.977.016-.016 3.992 5.478.017.016-3.977 3.977.016.032-5.463Z" fill="url(#d)"/><path d="m51.236 46.906-19.708-.096a.961.961 0 0 1-.959-.958v-.447c0-.527.432-.959.959-.959l19.708.096c.527 0 .959.431.959.959v.447a.961.961 0 0 1-.959.958Z" fill="url(#e)"/><path opacity=".5" d="m50.913 54.27-19.458-3.13a.961.961 0 0 1-.8-1.094l.07-.442a.961.961 0 0 1 1.094-.8l19.459 3.131c.52.081.88.574.799 1.094l-.07.442a.961.961 0 0 1-1.094.8Z" fill="url(#f)"/><path opacity=".08" d="M6.133 1.773v.351l.032 4.153.032 4.057v.495c0 .766.639 1.39 1.405 1.39h.336l2.124-.017 2.316-.016 2.108-.016 2.316-.016 2.108-.016 2.316-.016 2.108-.016 2.316-.016 2.124-.016 2.316-.015 2.108-.016 2.316-.016 2.108-.016 2.316-.016 2.125-.016 2.315-.016 2.109-.016 2.316-.016 2.108-.016 2.316-.016 2.124-.016h.335c.767 0 1.39-.64 1.39-1.406v-.367C31.368 11.18 7.523.367 7.523.367a1.415 1.415 0 0 0-1.39 1.406Z" fill="#1A6FB5"/></g><defs><linearGradient id="b" x1="0" y1="11.333" x2="57.139" y2="90.194" gradientUnits="userSpaceOnUse"><stop stop-color="#6CBCFC"/><stop offset="1" stop-color="#458DFC"/></linearGradient><linearGradient id="c" x1="-629.93" y1="-39.931" x2="-27.604" y2="2.022" gradientUnits="userSpaceOnUse"><stop stop-color="#B0F4FF"/><stop offset=".053" stop-color="#A9F2FF"/><stop offset=".288" stop-color="#8DE8FE"/><stop offset=".525" stop-color="#79E1FD"/><stop offset=".762" stop-color="#6DDDFC"/><stop offset="1" stop-color="#69DCFC"/></linearGradient><linearGradient id="d" x1="21.978" y1="43.095" x2="12.598" y2="53.912" gradientUnits="userSpaceOnUse"><stop stop-color="#6CBCFC"/><stop offset="1" stop-color="#458DFC"/></linearGradient><linearGradient id="e" x1="52.385" y1="45.671" x2="28.887" y2="45.671" gradientUnits="userSpaceOnUse"><stop stop-color="#6CBCFC"/><stop offset="1" stop-color="#458DFC"/></linearGradient><linearGradient id="f" x1="30.682" y1="49.867" x2="52.051" y2="53.198" gradientUnits="userSpaceOnUse"><stop stop-color="#6CBCFC"/><stop offset="1" stop-color="#458DFC"/></linearGradient><clipPath id="a"><path fill="#fff" d="M0 0h61.857v85H0z"/></clipPath></defs></svg>