<svg width="160" height="41" viewBox="0 0 160 41" fill="none" xmlns="http://www.w3.org/2000/svg">
<path d="M46.856 15.456H41.288V12.912H55.568V15.456H49.976V30H46.856V15.456ZM62.1209 17.592C62.5849 17.592 62.9849 17.656 63.3209 17.784L63.2969 20.52C62.7849 20.312 62.2569 20.208 61.7129 20.208C60.6889 20.208 59.9049 20.504 59.3609 21.096C58.8329 21.688 58.5689 22.472 58.5689 23.448V30H55.5929V21.312C55.5929 20.032 55.5289 18.888 55.4009 17.88H58.2089L58.4489 20.016C58.7529 19.232 59.2329 18.632 59.8889 18.216C60.5449 17.8 61.2889 17.592 62.1209 17.592ZM76.349 17.88V30H73.397V28.056C73.029 28.728 72.501 29.256 71.813 29.64C71.125 30.008 70.341 30.192 69.461 30.192C68.405 30.192 67.469 29.936 66.653 29.424C65.837 28.912 65.205 28.184 64.757 27.24C64.309 26.296 64.085 25.2 64.085 23.952C64.085 22.704 64.309 21.6 64.757 20.64C65.221 19.664 65.861 18.912 66.677 18.384C67.493 17.84 68.421 17.568 69.461 17.568C70.341 17.568 71.125 17.76 71.813 18.144C72.501 18.512 73.029 19.032 73.397 19.704V17.88H76.349ZM70.277 27.84C71.269 27.84 72.037 27.496 72.581 26.808C73.125 26.12 73.397 25.152 73.397 23.904C73.397 22.624 73.125 21.64 72.581 20.952C72.037 20.264 71.261 19.92 70.253 19.92C69.261 19.92 68.485 20.28 67.925 21C67.381 21.704 67.109 22.688 67.109 23.952C67.109 25.2 67.381 26.16 67.925 26.832C68.485 27.504 69.269 27.84 70.277 27.84ZM85.3524 14.712C84.0564 14.712 83.4084 15.424 83.4084 16.848V17.88H86.1204V20.136H83.4084V30H80.4084V20.136H78.1044V17.88H80.4084V16.704C80.4084 15.264 80.7684 14.16 81.4884 13.392C82.2244 12.608 83.2724 12.216 84.6324 12.216C85.3844 12.216 86.0164 12.312 86.5284 12.504V14.88C86.0804 14.768 85.6884 14.712 85.3524 14.712ZM99.9037 17.88V30H96.9517V28.056C96.5837 28.728 96.0557 29.256 95.3677 29.64C94.6797 30.008 93.8957 30.192 93.0157 30.192C91.9597 30.192 91.0237 29.936 90.2077 29.424C89.3917 28.912 88.7597 28.184 88.3117 27.24C87.8637 26.296 87.6397 25.2 87.6397 23.952C87.6397 22.704 87.8637 21.6 88.3117 20.64C88.7757 19.664 89.4157 18.912 90.2317 18.384C91.0477 17.84 91.9757 17.568 93.0157 17.568C93.8957 17.568 94.6797 17.76 95.3677 18.144C96.0557 18.512 96.5837 19.032 96.9517 19.704V17.88H99.9037ZM93.8317 27.84C94.8237 27.84 95.5917 27.496 96.1357 26.808C96.6797 26.12 96.9517 25.152 96.9517 23.904C96.9517 22.624 96.6797 21.64 96.1357 20.952C95.5917 20.264 94.8157 19.92 93.8077 19.92C92.8157 19.92 92.0397 20.28 91.4797 21C90.9357 21.704 90.6637 22.688 90.6637 23.952C90.6637 25.2 90.9357 26.16 91.4797 26.832C92.0397 27.504 92.8237 27.84 93.8317 27.84ZM103.171 12.336H106.147V30H103.171V12.336ZM121.141 17.88V29.616C121.141 31.504 120.621 32.936 119.581 33.912C118.541 34.888 117.013 35.376 114.997 35.376C113.125 35.376 111.477 34.984 110.053 34.2L110.533 31.92C112.005 32.688 113.469 33.072 114.925 33.072C117.085 33.072 118.165 32 118.165 29.856V27.456C117.797 28.112 117.261 28.648 116.557 29.064C115.853 29.464 115.061 29.664 114.181 29.664C113.125 29.664 112.181 29.416 111.349 28.92C110.533 28.408 109.893 27.696 109.429 26.784C108.981 25.856 108.757 24.8 108.757 23.616C108.757 22.432 108.981 21.384 109.429 20.472C109.893 19.544 110.533 18.832 111.349 18.336C112.181 17.824 113.125 17.568 114.181 17.568C115.077 17.568 115.869 17.76 116.557 18.144C117.261 18.512 117.797 19.032 118.165 19.704V17.88H121.141ZM114.973 27.312C115.965 27.312 116.741 26.984 117.301 26.328C117.877 25.672 118.165 24.768 118.165 23.616C118.165 22.464 117.885 21.56 117.325 20.904C116.765 20.248 115.981 19.92 114.973 19.92C113.981 19.92 113.197 20.248 112.621 20.904C112.061 21.56 111.781 22.464 111.781 23.616C111.781 24.768 112.061 25.672 112.621 26.328C113.197 26.984 113.981 27.312 114.973 27.312ZM135.974 17.88V30H133.022V28.056C132.654 28.728 132.126 29.256 131.438 29.64C130.75 30.008 129.966 30.192 129.086 30.192C128.03 30.192 127.094 29.936 126.278 29.424C125.462 28.912 124.83 28.184 124.382 27.24C123.934 26.296 123.71 25.2 123.71 23.952C123.71 22.704 123.934 21.6 124.382 20.64C124.846 19.664 125.486 18.912 126.302 18.384C127.118 17.84 128.046 17.568 129.086 17.568C129.966 17.568 130.75 17.76 131.438 18.144C132.126 18.512 132.654 19.032 133.022 19.704V17.88H135.974ZM129.902 27.84C130.894 27.84 131.662 27.496 132.206 26.808C132.75 26.12 133.022 25.152 133.022 23.904C133.022 22.624 132.75 21.64 132.206 20.952C131.662 20.264 130.886 19.92 129.878 19.92C128.886 19.92 128.11 20.28 127.55 21C127.006 21.704 126.734 22.688 126.734 23.952C126.734 25.2 127.006 26.16 127.55 26.832C128.11 27.504 128.894 27.84 129.902 27.84ZM145.769 17.592C146.233 17.592 146.633 17.656 146.969 17.784L146.945 20.52C146.433 20.312 145.905 20.208 145.361 20.208C144.337 20.208 143.553 20.504 143.009 21.096C142.481 21.688 142.217 22.472 142.217 23.448V30H139.241V21.312C139.241 20.032 139.177 18.888 139.049 17.88H141.857L142.097 20.016C142.401 19.232 142.881 18.632 143.537 18.216C144.193 17.8 144.937 17.592 145.769 17.592Z" fill="white"/>
<circle cx="20.5" cy="20.5" r="20.5" fill="white"/>
<path d="M19.344 15.244H13.312V12.488H28.782V15.244H22.724V31H19.344V15.244Z" fill="#5B9BF3"/>
</svg>
